<svg version="1.1" id="Layer_1" xmlns="http://www.w3.org/2000/svg" xlink="http://www.w3.org/1999/xlink" x="0px" y="0px" width="20px" height="20px" viewBox="0 0 512 512" enable-background="new 0 0 512 512" space="preserve" fill="#ffffff"><path d="M456,64.0001H56c-6.6274,0-12,5.3726-12,12v304c0,6.62741,5.3726,12,12,12h159.9799v28H168	c-6.6001,0-12,5.39999-12,12v16h200v-16c0-6.60001-5.3999-12-12-12h-48.02011v-28H456c6.62741,0,12-5.37259,12-12v-304	C468,69.3727,462.62741,64.0001,456,64.0001z M439.98001,352.00009H72.0728v-260h367.90723v260H439.98001z"></path></svg>