<svg version="1.1" id="Layer_1" xmlns="http://www.w3.org/2000/svg" xlink="http://www.w3.org/1999/xlink" x="0px" y="0px" width="20px" height="20px" viewBox="0 0 512 512" enable-background="new 0 0 512 512" space="preserve" fill="#ffffff"><path d="M308.58789,115.62803c-2.17871-2.23535-5.21875-3.62793-8.58789-3.62793H28c-6.62695,0-12,5.37256-12,12	v39.99999c0,6.62744,5.37305,12,12,12h220.21582L308.58789,115.62803z"></path><path d="M139.33105,286.36777c0.60254-1.58057,1.53223-3.01562,2.72852-4.21167l58.15625-58.15601H28	c-6.62695,0-12,5.37256-12,12v40c0,6.62744,5.37305,12,12,12h110.70898L139.33105,286.36777z"></path><path d="M120.41504,336.00009H28c-6.62695,0-12,5.37256-12,12v40c0,6.62744,5.37305,12,12,12h68.02246	L120.41504,336.00009z"></path><rect x="194.43774" y="177.5437" transform="matrix(0.70711 -0.70711 0.70711 0.70711 -77.52898 295.91647)" width="248.00114" height="128.00058"></rect><path d="M489.55634,129.82138l-59.39694-59.39697c-8.59155-8.59154-22.52118-8.59154-31.1127,0l-15.55637,15.55635	L474,176.49042l15.55634-15.55634C498.14789,152.34254,498.14789,138.4129,489.55634,129.82138z"></path><polygon points="131.42747,393.94647 111.96133,448.01944 166.03429,428.55328 "></polygon><polygon points="199.30974,416.57388 253.38269,397.10773 162.87302,306.59808 143.40686,360.67102 "></polygon></svg>