<svg version="1.1" id="Layer_1" xmlns="http://www.w3.org/2000/svg" xlink="http://www.w3.org/1999/xlink" x="0px" y="0px" width="512px" height="512px" viewBox="0 0 512 512" enable-background="new 0 0 512 512" space="preserve" fill="#ffffff"><path d="M240.66699,322.24521c4.92773,1.13525,10.05371,1.75488,15.32764,1.75488	c37.5625,0,68.00537-30.44336,68.00537-67.99951c0-5.2749-0.62061-10.40186-1.75684-15.33154L240.66699,322.24521z"></path><path d="M428.53418,66.49571v-0.00049c-7.81055-7.81006-20.47363-7.81006-28.28418,0l-59.84961,59.84961	c-24.72266-11.17677-52.28564-18.34473-82.33447-18.34473h-4.13184c-136.58691,0-221.93408,148-221.93408,148	s30.10645,52.67627,83.56934,95.17578l-49.07423,49.07422c-7.81006,7.81055-7.81006,20.47363,0,28.28418h0.00049	c7.81006,7.81055,20.47363,7.81055,28.28418,0L428.53418,94.77989C436.34473,86.96934,436.34473,74.30576,428.53418,66.49571z	 M148,256.00058c0-28.84912,11.22949-55.96924,31.61963-76.36475c20.39502-20.40088,47.51855-31.63574,76.375-31.63574	c17.83838,0,35.01416,4.29932,50.35107,12.39941l-30.53906,30.53906c-6.26758-1.9082-12.91846-2.93848-19.81201-2.93848	c-37.57275,0-67.99463,30.44287-67.99463,68.00049c0,6.89209,1.0293,13.5415,2.93652,19.80811l-30.54004,30.54004	C152.29834,291.01376,148,273.83847,148,256.00058z"></path><path d="M399.41504,163.49716l-45.91992,45.91992C360.36914,223.77695,364,239.60898,364,256.00058	c0,28.84912-11.23438,55.97021-31.6333,76.36816s-47.52148,31.63135-76.37207,31.63135	c-16.39209,0-32.22314-3.62988-46.58105-10.50146l-33.97803,33.97803c23.69775,10.12207,49.95264,16.52344,78.49854,16.52344	h4.13184c137.3999,0,221.93408-148,221.93408-148S450.86426,205.50009,399.41504,163.49716z"></path></svg>