<svg xmlns="http://www.w3.org/2000/svg" viewBox="0 0 1920 1080" preserveAspectRatio="xMinYMin slice" fill="#e6be00">
      <path id="staff" class="staff" d="M552.1,221.7c0,0-13.3,11.5,1.5,27c14.8,15.4,19,5.7,22.4,4.9c3.4-0.8,12.5,12.2,12.5,12.2
          s116.6,243.8,128.8,278.8c12.3,35,19,43,19,43l-6.1-25.8c0,0-16.2-40.9-18.5-47.6c-2.3-6.7-55-137.1-78.6-183.9
          c-23.6-46.9-40.9-93.4-55.7-105.3C586,211.1,556,198.2,552.1,221.7z"/>
      <path class="wizard" d="M470.9,824c0,13.8,10.2,25.3,25.3,25.3c15.1,0,25.3-11.3,25.3-25.3v-29.3h-50.6
          C470.9,794.7,470.9,812.2,470.9,824z"/>
      <path class="wizard" d="M396.6,824c0,13.8,10.2,25.3,25.3,25.3c15.1,0,25.3-11.3,25.3-25.3v-30.2h-50.6
          C396.6,793.9,396.6,812.2,396.6,824z"/>
      <path class="wizard" d="M658.4,320.6c-10.5-10.5-25.5-9.7-35.2,0L457.7,486.2c0,0-59.4-58.9-106.3-105.4c10.6-1,32.6-8,39.9-10.4
          c4.9,32.3,32.7,57,66.3,57c37.1,0,67.1-30,67.1-67.1c0-8.9-1.7-17.3-4.8-25c14.1-5.5,58.6-24,54.2-37.6c-5.1-16-62.9,16.7-62.9,16.7
          s-32.7-48.8-57.8-62.9c-25-14.1-61.6,22.5-92.4,31.5c-30.8,9-63.8,35.8-54.6,34.7c10.3-1.3,37.9-12.2,61.6-13.5
          c23.8-1.3,16,44.3,16,50.1c0,0-29.6,14.8-37,22.4c-27.3-27.1-49.4-49-51.2-50.8c-9.6-9.6-24.7-10.5-35.2,0
          c-10.5,10.5-9.7,25.5,0,35.2c0,0,111.4,111.4,116.4,116.4c0.5,0.5,1,1,1.6,1.4l0,306.8h157.8V476.3c1.9-1.1,3.7-2.5,5.4-4.2
          c0,0,111.4-111.4,116.4-116.4C668,346.3,668.9,331.1,658.4,320.6z M500.4,349.1c4.8,0,8.6,3.9,8.6,8.6c0,4.8-3.9,8.6-8.6,8.6
          c-4.8,0-8.6-3.9-8.6-8.6C491.8,353,495.7,349.1,500.4,349.1z M451.5,349.1c4.8,0,8.6,3.9,8.6,8.6c0,4.8-3.9,8.6-8.6,8.6
          c-4.8,0-8.6-3.9-8.6-8.6C442.9,353,446.7,349.1,451.5,349.1z"/>
    </svg>
