<svg version="1.1" id="Layer_1" xmlns="http://www.w3.org/2000/svg" xlink="http://www.w3.org/1999/xlink" x="0px" y="0px" width="512px" height="512px" viewBox="0 0 512 512" enable-background="new 0 0 512 512" space="preserve" fill="#ffee7c"><path d="M288.30475,443.79181c0,13.49921-14.45325,24.20828-32.28448,24.20828s-32.28448-10.70908-32.28448-24.20828	H288.30475z"></path><path d="M322.62857,391.25598H189.37141c-3.34528,0-6.05714-2.71185-6.05714-6.05713v-16.13211	c0-3.34528,2.71187-6.05713,6.05714-6.05713h133.25716c3.34528,0,6.05716,2.71185,6.05716,6.05713v16.13211	C328.68573,388.54413,325.97385,391.25598,322.62857,391.25598z"></path><path d="M312.86438,431.63696H197.11655c-5.02351,0-9.2827-3.6936-9.99362-8.66656l-1.81065-12.6655	c-0.5217-3.6492,2.30986-6.91434,5.99617-6.91434h129.38309c3.68634,0,6.51788,3.26514,5.99619,6.91434l-1.81064,12.6655	C324.16614,427.94336,317.88791,431.63696,312.86438,431.63696z"></path><path d="M160.40543,284.72153c18.97026,15.6499,30.11786,38.77469,30.93658,63.26865	c0.05426,1.62314,1.39647,2.90442,3.02052,2.90442l22.22287-0.00018c1.71603,0,3.07574-1.42438,3.02966-3.1398	c-0.88866-33.08963-15.80005-63.8653-41.22142-84.83716c-25.10168-20.70807-39.49837-50.45847-39.49837-81.6221	c0-60.11842,52.53296-109.02858,117.10466-109.02858c64.57178,0,117.10477,48.91016,117.10477,109.02858	c0,31.16364-14.39648,60.91403-39.49847,81.6221c-25.4212,20.97186-40.33264,51.74753-41.22131,84.83719	c-0.04605,1.71539,1.31366,3.13977,3.02966,3.13977l22.22287,0.00021c1.62408,0.00003,2.96628-1.28125,3.02054-2.90439	c0.81873-24.49399,11.96634-47.6188,30.93665-63.26868C382.099,259.5564,401.3714,222.5536,401.3714,181.29535	c0-75.82618-65.08496-137.29526-145.37146-137.29526c-80.28636,0-145.37134,61.46907-145.37134,137.29526	C110.62861,222.5536,129.90112,259.5564,160.40543,284.72153z"></path><path d="M239.84767,320.60953c-6.69055,0-12.11429-5.42371-12.11429-12.11429v-51.74155l-27.01807-28.80963	c-4.57687-4.88014-4.3309-12.54659,0.54912-17.12334c4.88101-4.57663,12.54709-4.33066,17.12346,0.5495l30.29608,32.30476	c2.1058,2.24542,3.27798,5.20844,3.27798,8.28693v56.53333C251.96196,315.18582,246.53824,320.60953,239.84767,320.60953z"></path><path d="M272.15244,320.60953c-6.69055,0-12.11429-5.42371-12.11429-12.11429v-56.53333	c0-3.07837,1.17221-6.04138,3.27802-8.28693l30.29556-32.30476c4.57687-4.88016,12.24393-5.12601,17.12299-0.54962	c4.88049,4.57675,5.12646,12.24319,0.54959,17.12346l-27.01758,28.80951v51.74167	C284.26672,315.18582,278.84302,320.60953,272.15244,320.60953z"></path></svg>