
    <svg version="2.0" id="Layer_1" xmlns="http://www.w3.org/2000/svg" xmlns:xlink="http://www.w3.org/1999/xlink"
            x="0px" y="0px" viewBox="0 0 541 420" enable-background="new 0 0 541 420" xml:space="preserve">
            <g>
                <path fill="#2C2C2C" d="M104.4,107.3c-2.6,0.2-5.1-0.4-7.2,0.2c-0.8-0.3,0.1-0.7-0.8-0.8c1.4,0.9-2.9,0.5-2,1.1
          c-1-0.9-3.6-0.1-3.2-1.5c-1.2,0-1,0.6-0.6,0.7c-1.4,0-2.5,0-3.6,0.4c-0.8-0.3-6.3,0.4-7.5-0.7c0.8,0.7-0.1,0.3-0.9,0.6l0.7,0.6
          l-1.8-0.1H77c-0.3,0,0.1-0.3-0.7-0.5c-1.2-0.1-1.3,0.3-2,0.5l0.2,0.1h-0.8c-0.6,0,2.2-0.5,0.2-0.9c0,0.2-1.2,0.9-1.8,0.5
          c1,0.1,0.9-0.3,0.5-0.5l-1.4-0.1l0.4,0.7c-4.1-0.2-8.4-0.9-12.8-1.2c0.1-0.6-3.1-0.3-2.6-1.2l0.2,0.1c1.1,0-0.2-0.8-1.1-0.8
          c0.5,0.2,0,0.4-0.2,0.6c-0.1,0.1-0.2,0.2-0.1,0.3c0,0,0.1,0.1,0.2,0.1s0.3,0.1,0.6,0.1h-0.3c0,0-0.4,0.1-0.5,0.1
          c-0.3,0.1-0.5,0.2-0.5,0.2c0,0.3-0.1,0.5-0.2,0.6c-0.1,0.3-0.1,0.4-0.3,0.5l-0.1,0.1c0,0-0.2,0.1-0.3,0.2c-0.2,0.2-0.5,0.3-0.7,0.5
          c-1,0.7-2,1.4-2.7,2.3c0.1-0.2,0.1-0.3,0-0.3c-1.3,2-4.1,3.2-4.3,3.8l-0.5-0.2c-0.9,1.9-1,2.1-3,3.5c0-0.1,0.1-0.4-0.3-0.2
          c-0.2,0.7-0.3,1.3-1.6,2.4l-0.1-0.2l-1.8,1.8c-1-1.1-2.5,3.7-4.2,3c-0.1,0.7-1.3,2-1.7,2.8c0.1,0.1,0,0.2-0.1,0.5
          c-0.1,0-0.1-0.2,0.1-0.5c0,0-0.1-0.1-0.3,0c-0.1,1.3-2.2,1.7-2.9,2.6c-0.4,0.6,0,0.6,0.4,0.6c-1.5,0.5-2.3,3.2-2.8,3.3
          c-0.8,0.7-0.7-0.2-1.1-0.2c-0.5,0.6-0.2,0.8,0,1c0.1,0.1,0.1,0.2,0.1,0.3c0,0,0,0.1-0.1,0.1l-0.1,0.1h-0.2c0-0.1,0.1-0.2,0-0.3
          c-0.1,0-0.7-0.1-1.3,0c-0.6,0-1.4,0.3-1.4,0.5l0.6-0.2c-0.1,0.4-0.9,0.7-1.7,1.1c-0.8,0.4-1.4,0.8-0.5,0.7l0.9-0.2
          c-0.6,0.3-0.9,0.5-1.1,0.7c-0.1,0.1-0.1,0.1-0.2,0.1h0.2c0.3,0,0.5,0,0.9,0.3l-0.2,0.1c0.5,0,0.6,0.2,0.8,0.3
          c0.2,0.1,0.5,0.1,1.1-0.2l-0.1-0.1c0.9,0.1,0.9,0.2,1.8,0.4c0.1,0,0.6-0.1,0.7,0.1c0.1-0.6,3.1,0.2,3.7,0.4
          c-1.1-0.1-0.6,0.3-0.4,0.6c0.7-0.4,1.1-0.4,2,0.1c0.3-0.8,0.6-1.6,2.3-1.3c-0.3,0.1-0.7,0.1-0.6,0.3c0.1,0.2,0.6,0.1,0.7,0
          c0.1,0.2-0.4,0.2-0.3,0.5c1.3-0.6,2,0.3,3.7,0.3c-0.6,0.2-0.1,0.4,0,0.7c0.3-0.9,2.2,1.1,1.7-0.1c3.2,1.2,8.3,1.3,9.5,2.2
          c0.3,0.4,1.3,0,1.9,0l-0.1,0.4c1.7-0.5,1.3-0.1,3.3-0.6c-0.8,0.4-0.5,0.6,0.2,1.1l1.4-0.7l0.2,0.6c0.6-0.2,1.1,0,1.7,0.2
          c-0.3,0-0.1,0-0.1,0.2c0.4-0.8,2.7-0.4,3.1-0.8c0.5,0.9,1.6,0,1.9,0.8c0.2-0.1,0.5-0.2,0.7-0.2c-0.2-0.4-0.3-0.8,0.2-0.6H63
          l-0.2-0.5c0-0.4,0.6,0.2,1.3,0.6l0.6,0.3h0.2h-0.1c0.3,0.1,0.6,0.2,1.1,0.1c1.8,0.9,4.2-0.6,6.2,0.6c-0.3-0.1-0.7-0.2-0.9-0.1
          c1.7,0.1,3.4,0.9,4.5,0.7v-0.5c1.3-0.1,2.3-0.2,3.3-0.1l0.1-0.5c1.5,0.3,4.7-0.3,5.5,0.8c0.4-0.4,2,0.3,2.9,0.2l0.2,0.4
          c0.3,0,0.5,0.1,0.7,0.1h0.3c0.1,0,0.1-0.1,0.2-0.1l0.1-0.1c0,0,0.1-0.1,0.2-0.1h-0.3c0-0.1,0.1-0.2,0.3-0.3
          c0.2-0.1,0.4-0.2,0.9-0.2h0.6v0.1c0-0.2,0-0.7,0,0c0.3,0,0.7-0.1,1.2,0c0,0.4-0.6,0.2-1.2,0.1v0.4H91c0.4-0.1,0.9-0.2,1.3-0.4
          c0.8-0.4,1.6-0.9,2.3-1.3l0.1,0.1c0,0,0.4-0.3,0.7-0.6c0.3-0.3,0.7-0.6,0.7-0.6c-0.2,0.5,0.2-0.4,0.6-0.6c0.3-0.5,1.1-0.9,1.7-1.2
          l0.4-0.4c0.1-0.1,0.3-0.3,0.4-0.3c0.6-1.4,0.9-2.6,1-3.4C101.6,127.7,103.2,117.8,104.4,107.3L104.4,107.3z" />
                <path fill="#2C2C2C" d="M63.3,142.1c0.5-0.1,1.1-0.1,1.4,0c-0.2-0.1-0.3-0.2-0.5-0.3c-0.3-0.1-0.6-0.2-1.1-0.2L63.3,142.1z
           M69.3,143.3c-0.9,0.1-1.7,0.6-2.4,1.2c0.8,0.1,1.5,0.1,2.3,0.2c0.8-0.5,1.5-1,1.9-1.3l-1.4,0.2L69.3,143.3L69.3,143.3z
           M31.2,139.5c-0.1,0-0.2,0.1-0.3,0.1c-0.1,0-0.2,0.1-0.2,0.1c0.3,0,0.6,0.1,0.8,0.1C31.5,139.7,31.5,139.6,31.2,139.5L31.2,139.5z
           M53.7,142.2l-1.2,0.8c0.4,0,0.7,0.1,1.1,0.1C53.6,142.7,53.6,142.4,53.7,142.2L53.7,142.2z M31.2,139l-1.8,0.1
          c0.1,0.1,0.4,0.3,0.6,0.5c0.1,0,0.2,0,0.4,0.1c0.2,0,0.3-0.1,0.4-0.1C31.2,139.4,31.4,139.2,31.2,139z M79.8,145.7
          c0-0.1-0.1-0.2-0.1-0.2c-0.5-0.4-2.6-1.3-2.7-1.3c-0.2,0.2-0.3,0.7-0.4,1.3c0.5,0,1,0.1,1.5,0.1l0.2-0.7v0.8
          C78.8,145.6,79.3,145.6,79.8,145.7L79.8,145.7z" />
                <path fill="#00A6FB" d="M54.2,20.2c-1.7,9.4-4,23.2-5.1,37.2c-2.1,24.8-0.8,41.4-0.8,41.4L13.4,132c0,0-2.7-18.6-4-39.6
          C8.5,79.6,8.3,68.1,8.2,61.2c0-0.4,0.2-0.8,0.2-1.2s0.6-5.1,5.1-9.4C18.5,45.9,54.7,17.5,54.2,20.2z" />
                <path opacity="0.35" fill="#1284EA" enable-background="new    " d="M54.2,20.2c-1.7,9.4-4,23.2-5.1,37.2c0,0-38.6-4.6-40.8,4.7
          c0-0.5,0.6-6.2,5.2-10.5C18.4,47,54.7,17.5,54.2,20.2z" />
                <path fill="#BEDF2A" d="M8.2,60v2.1c0.4-1.7,1-2.9,2.5-4.7c2.9-3.6,7.5-4.6,9.4-4.8c9.4-1.2,23.4-2.8,37.5-3.2
          c24.9-0.8,41.3,1.3,41.3,1.3l34.9-33.2c0,0-18.3-3.5-39.1-5.9C80.9,10,68.9,9.2,62.2,8.8c-0.4,0-5.3-0.6-9.8,3.7
          c-5,4.7-29.9,28.4-40,37.9C7.9,54.7,8.2,59.6,8.2,60z" />
                <path fill="#7DC540" d="M90.4,146.4c-0.7,0-1.4-0.1-2.1-0.1c1.7-0.3,2.9-0.9,4.8-2.2c3.8-2.7,5-7.3,5.3-9.1
          c1.7-9.4,3.9-23.2,5-37.2c2-24.8,0.7-41.3,0.7-41.3L139,23.3c0,0,2.6,18.4,4,39.4c0.9,13.7,1.2,25.7,1.2,32.5
          c0,0.4,0.4,5.3-4.2,9.6c-5,4.7-29.8,28.5-39.9,38C95.6,146.9,90.8,146.4,90.4,146.4z" />
            </g>
            <path fill="#6D6D6D" d="M482.7,224.9c-0.1-1.1,0.8-2.1,1.9-2.1c1.1-0.1,2.1,0.8,2.1,1.9c0.1,1,1.8,21.7,21.9,31.6
      c3.4-2.7,7.4-5.8,7.4-5.8c7.2-5.8,8.9-15.7,2.7-23.5c-3.2-4-7.4-6.1-11.8-6.4v-80.3c0-22.1-17.9-40-40-40h-38.7
      c-8.8,0-16,7-16.3,15.8v267.2c0,13.2,9.3,23.9,22.4,23.9s21.6-11,21.6-24V260.4h7v123c0,13.2,9.3,23.9,22.4,23.9s21.6-11,21.6-24
      V260.2C484.7,248.8,482.7,225.2,482.7,224.9L482.7,224.9z M332.3,119.6c-2.6,3.9-4.9,8.6-4.6,13.3v-0.1c0.1,1.1,0.2,2.2,0.4,3.3
      c0.7,2.5,2,4.8,3,7.2s1.6,4.9,1.6,7.5c0,0.6,0.1,1.8-0.3,2.3c-0.6,0.9-1-0.3-1.1-0.7c-0.5-2.2-1.2-4.3-2.2-6.3
      c-1.2-2.2-2.8-4.3-3.9-6.6c-1.5-3.1-2-6.8-1.2-10.2c0.6-2.7,2-5.2,3.8-7.4c0.8-1,1.8-1.9,2.9-2.6c0.3-0.2,0.6-0.5,0.9-0.6
      C332,118.8,332.6,119.1,332.3,119.6L332.3,119.6z M339.1,91.3c-1,2.3-1.6,5-1.8,7.5c-0.1,1.6,0,3.3,0.4,4.9s1.2,3,1.9,4.5
      c1.4,3.1,2.3,6.2,2,9.6c-0.2,3.1-1.2,6.2-2.6,8.9c-0.7,1.4-1.5,2.8-2.3,4.1c-0.2,0.4-1.3,2.6-2,1.8c-0.5-0.5,0.5-2,0.7-2.5
      c0.6-1.4,1.1-2.9,1.5-4.3c0.9-3,1.7-6.1,1.4-9.3c-0.2-3.4-1.4-6.5-2.4-9.8c-1.2-3.4-0.9-7.2,0.1-10.6c0.4-1.4,0.9-2.7,1.5-4
      c0.2-0.4,0.4-1,0.7-1.4C338.5,90.5,339.4,90.7,339.1,91.3L339.1,91.3z M478.8,39.3C475.2,14.9,452.6-2,428.2,1.5
      s-41.3,26.2-37.8,50.6s26.2,41.3,50.6,37.8S482.3,63.7,478.8,39.3L478.8,39.3z M412.2,50.6c-0.8,3.1-4,5-7.1,4.1
      c-3.1-0.8-5-4-4.1-7.1l10.6-1.5C412.4,47.4,412.7,49,412.2,50.6z M440.8,71.8c-0.4,0.3-3.8,3.4-12.5,4.7c-2.1,0.3-4.1,0.4-5.7,0.4
      c-5.1,0-7.9-1.1-8-1.2c-1-0.4-1.5-1.6-1-2.6c0.4-1,1.6-1.5,2.6-1c0.1,0,4,1.6,11.6,0.5c7.5-1.1,10.3-3.6,10.4-3.6
      c0.8-0.7,2.1-0.7,2.8,0.1C441.6,69.8,441.6,71.1,440.8,71.8L440.8,71.8z M441.4,46.4c-0.8,3.1-4,5-7.1,4.1c-3.1-0.8-5-4-4.1-7.1
      l10.6-1.5C441.6,43.1,441.9,44.7,441.4,46.4z M402.6,171c-2.3-9.7-11.3-14.5-20.2-12.4c-4.6,1.1-11.5,2.8-11.5,2.8
      c-3.5,0.8-6.6,2.7-8.8,5.1l-0.1-0.1c-0.5-0.5-1.1-0.9-1.7-1.3l-1.2-0.6c-1.8-0.7-4.4-0.8-7.8-0.8v-2.5h-34v28.9c0,7.8,2,7.2,9.8,7.2
      h14.3c7.1,0,9.4,0.5,9.8-5.3c0.9,0,1.8,0,2.6-0.1s1.6-0.2,2.3-0.3c1.8-0.3,3.2-0.9,4.4-1.7c0.5-0.4,1-0.8,1.4-1.2
      c4,4.8,10.4,6.8,16.7,5.3c4.6-1.1,11.5-2.7,11.5-2.7C399.2,189.1,404.9,180.7,402.6,171L402.6,171z M357,188.2
      c-2.4,0.6-3.5,0.2-4.3-0.3l-0.9-0.6c-0.1-0.1-0.3-0.2-0.4-0.2v-18c0.9-0.5,1-1.8,3.3-1.9c0.6,0,1.4,0,2.4,0.2
      c0.6,0.1,1.2,0.3,1.7,0.6c0.4,0.2,0.7,0.5,1,0.8c0.1,0.1,0.2,0.2,0.3,0.4c-2.1,3.5-2.8,7.8-1.7,12.5c0.4,1.6,0.9,3,1.7,4.3
      C359.4,187,358.4,187.9,357,188.2z" />
            <path fill="#8544B3" d="M60,393.4l-2.6-1.1l-4-0.5c1.7,0.9,4,2.1,5.9,3.1C59.5,394.4,59.8,393.9,60,393.4z M105.9,384.6l-9.7-2.7
      c0.3,1.2,0.5,2.4,0.8,3.5C97,385.4,105.9,384.6,105.9,384.6z M91.6,392.1l-2.7-1.5l3-0.9c1.3-0.4,2.7-0.8,4-1.1
      c-2.5-2-5.1-4-7.6-5.9L75.8,386l-3.1,2.8l-3.4,2.6c0.6,1.4,1.2,2.8,1.7,4.1l27.9,3.8c0.3-1.1,0.6-2.1,0.7-3L91.6,392.1L91.6,392.1z
       M103.5,398.7c1,0.8,1.9,1.6,2.8,2.4l0.9-0.6C107.2,400.5,103.5,398.7,103.5,398.7z" />
            <path fill="#8544B3" d="M114.8,396.7l-0.2,0.2l-0.2-0.4c-0.4-0.8-0.7-1.5-1-2.2l-0.4-0.8l0.8,0.4c1.3,0.6,2.6,1.3,3.9,2
      c1.2-1.1,2.4-2.1,3.4-3c-2.3-1.7-5.3-3.9-7.1-5.3c-9.2,0.4-16.4,1.8-21.8,3.5l12.1,6.4l5.6,2.2l2.4,1.8c1.2-1.3,2.3-2.5,3.5-3.6
      C115.8,397.9,114.8,396.7,114.8,396.7z" />
            <path fill="#8544B3" d="M114.9,395.8l4.4,5.1c2.3-0.4,3.9-0.5,4.9-0.6c-3.3-2-6.5-3.8-9.8-5.4C114.5,395.2,114.7,395.5,114.9,395.8z
      " />
            <path fill="#6F33A1" d="M90.3,400.7L62.9,397c0.7,1.8,1.3,3.5,1.8,5.2l12.1,2.6l12.4-1.1C89.7,402.6,90,401.6,90.3,400.7z M55,390.1
      l6,0.8l11.7-4.1c-1.3-0.8-2.5-1.6-3.8-2.3L46.5,384c1.5,2,2.9,4,4.2,6C50.7,390,55,390.1,55,390.1z" />
            <path fill="#8544B3" d="M67.2,391.1l-2.2,4c1.2-0.3,2.4-0.5,3.6-0.7L67.2,391.1z M29.6,389.3l-1-0.8l4.8,1l13.8-6.2
      C21.4,389,1.5,395.9,1.5,395.9c6.5-0.5,12.5-0.5,18.2-0.2l11.4-5.2C30.6,390.2,30.1,389.7,29.6,389.3L29.6,389.3z" />
            <path fill="#8544B3" d="M39.1,397.3l18.9-1.8l-27-5.8C33.8,392.1,36.6,394.7,39.1,397.3L39.1,397.3z M32.3,395.6l-0.6-3.2l-3.8,3.9
      l-2.3,3c0.9,0.1,1.7,0.1,2.6,0.2L32.3,395.6z" />
            <path fill="#6F33A1" d="M129.3,390.3c0-0.7,0.3-1.4,0.8-1.8c-0.3-0.5-0.3-1.1-0.2-1.7l-7.2-0.1l6.6,5.1h0.4
      C129.5,391.2,129.3,390.8,129.3,390.3L129.3,390.3z" />
            <g transform="translate(187, 382)">
                <g class="robot">
                    <animateMotion dur="1.5s" repeatCount="indefinite" 
                    path="M0,0 30,0 0,0 z" />
                    <path fill="#6D6D6D" d="M43.3,2C33.1,5.9,19.7,8.1,5.6,8.1C-8.6,8.1-22,5.9-32.1,2c-5.6-2.2-10-4.9-13.1-7.9V5.7
              c0,10.9,22.7,19.7,50.8,19.7s50.8-8.8,50.8-19.7V-5.9C53.4-2.8,49-0.1,43.3,2z M-21.5,19.2c-6.1-1.5-11.4-3.5-15.4-5.9V8.6
              c3.3,2.4,8.6,4.8,15.4,6.5V19.2z M-21.5,11.9c-5.8-1.3-11-3.1-15.4-5.4V2c4,2.4,9.2,4.4,15.4,5.9V11.9z M39.3,17.3
              c-6.5,2.2-14.5,3.8-23.4,4.6v-4c9.5-0.8,17.4-2.5,23.4-4.8V17.3L39.3,17.3z M39.3,10.1c-7,2.2-15.1,3.7-23.4,4.4v-4
              c8.9-0.7,16.9-2.3,23.4-4.6V10.1z" />
                    <path class="actionline" fill="#6D6D6D"
                        d="M-48.4,12.3l-4.5,1.7c-0.4,0.2-0.5,0.5-0.3,0.7c0.3,0.3,0.8,0.3,1.2,0.2l4.2-1.6
              C-48,13-48.2,12.7-48.4,12.3L-48.4,12.3z M-47,14.5l-3.2,2c-0.3,0.2-0.3,0.5,0,0.8c0.3,0.2,0.9,0.2,1.2,0l2.8-1.7
              C-46.4,15.1-46.7,14.8-47,14.5L-47,14.5z M-44.6,17l-1.4,1.5c-0.2,0.3-0.1,0.6,0.3,0.7c0.4,0.1,0.9,0.1,1.2-0.2l1-1.1
              C-43.9,17.7-44.3,17.4-44.6,17z M-53.2,1.8l3,1.1V1.7l-2.2-0.8c-0.4-0.1-0.9-0.1-1.2,0.2C-53.8,1.3-53.6,1.6-53.2,1.8L-53.2,1.8z
               M-55.2,5.4l5,0.7V5l-4.6-0.7c-0.5-0.1-0.9,0.1-1,0.4C-56,4.9-55.7,5.3-55.2,5.4z M-22.7,27.3l-2.5,1c-0.5,0.2-0.6,0.6-0.3,0.9
              s0.9,0.4,1.4,0.2l3.8-1.5L-22.7,27.3z M-50.1,7.2h-5.8c-0.3,0-0.5,0.2-0.5,0.5s0.2,0.5,0.5,0.5h6C-50,7.9-50.1,7.6-50.1,7.2z
               M-49.6,9.6l-5.5,0.9c-0.5,0.1-0.7,0.4-0.6,0.7c0.1,0.3,0.6,0.5,1.1,0.4l5.4-0.9C-49.3,10.3-49.5,9.9-49.6,9.6z M-5.2,35.6
              c0,0.4,0.4,0.8,0.8,0.8H-4c0.4,0,0.8-0.4,0.8-0.8v-5.5c-0.7,0-1.4,0-2-0.1V35.6z M13.4,30.9l-1.1-0.7c-0.9,0-1.8,0.1-2.7,0.1
              l2.4,1.5c0.4,0.2,1,0.2,1.4,0C13.8,31.6,13.8,31.1,13.4,30.9L13.4,30.9z M6.5,30.4H4.2l3.4,3.4c0.3,0.3,0.9,0.4,1.4,0.2
              c0.5-0.2,0.6-0.6,0.3-0.9L6.5,30.4L6.5,30.4z M-17.7,28.3l-4.2,2.6c-0.4,0.2-0.4,0.6,0,0.9c0.4,0.2,1,0.2,1.4,0l5-3.1
              C-16.2,28.5-17,28.4-17.7,28.3z M0.9,30.3c-0.7,0-1.4-0.1-2.1-0.1L1,35.4c0.1,0.3,0.7,0.5,1.2,0.4s0.9-0.4,0.7-0.8L0.9,30.3
              L0.9,30.3z M-13.1,29.1l-4,4.3c-0.3,0.3-0.1,0.7,0.4,0.8c0.5,0.2,1.1,0.1,1.4-0.2l4.4-4.7C-11.7,29.2-12.4,29.1-13.1,29.1
              L-13.1,29.1z M-10.7,35.3c-0.1,0.3,0.2,0.7,0.7,0.7c0.5,0.1,1.1-0.1,1.2-0.5l2.1-5.6c-0.5,0-1.2-0.1-1.9-0.2L-10.7,35.3z" />
                    <path fill="#6D6D6D" d="M5.6-36.3c-2.8,0-5.5,0.1-8.2,0.3c8.4,5.3,12.9,12.2,12.9,19.5S5.7-2.4-2.6,3c2.7,0.2,5.4,0.3,8.2,0.3
              c28.1,0,50.8-8.8,50.8-19.7C56.4-27.6,33.7-36.3,5.6-36.3L5.6-36.3z" />
                    <path fill="#6D6D6D" d="M-6-35.8c-22.4,2-39.2,9.9-39.2,19.2C-45.2-7.3-28.5,0.6-6,2.6C2.9-2.4,8.4-9.1,8.4-16.6S2.9-30.8-6-35.8z
               M-33.2-13.8c-4,0-7.2-1.3-7.2-2.8c0-1.6,3.2-2.8,7.2-2.8s7.2,1.3,7.2,2.8C-26-15-29.2-13.8-33.2-13.8z" />
                </g>
            </g>
        </svg>