<svg version="1.1" id="Layer_1" xmlns="http://www.w3.org/2000/svg" xlink="http://www.w3.org/1999/xlink" x="0px" y="0px" width="20px" height="20px" viewBox="0 0 512 512" enable-background="new 0 0 512 512" space="preserve" fill="#ffffff"><path d="M426.25003,276.5274c0.80124-6.73526,1.26712-13.57104,1.26712-20.52731	c0-9.86647-0.88422-19.52266-2.48196-28.93521l21.07504-16.75069c-5.5954-23.37822-15.34546-45.09079-28.5-64.37659	l-26.97729,3.87335c-10.17834-12.88129-22.15561-24.2694-35.5658-33.77563l3.07495-26.78289	c-19.70224-12.09377-41.70685-20.75237-65.20462-25.25234l-16.40225,21.74996c-6.73517-0.8062-13.58289-1.2671-20.53522-1.2671	c-9.87042,0-19.52266,0.87733-28.93521,2.47801l-16.73978-21.08585c-23.20461,5.56083-44.80461,15.22105-63.98288,28.22269	l3.78745,27.0148c-13.01941,10.23743-24.51708,22.30454-34.10223,35.83125l-26.78198-3.06715	C77.16251,173.56429,68.48522,195.56091,64,219.06657l21.74996,16.4171c-0.80225,6.72728-1.2671,13.56804-1.2671,20.51642	c0,9.71246,0.84672,19.22668,2.4,28.4921l-21.12041,16.66873c5.53526,23.40005,15.22499,45.18457,28.32738,64.50006l27.02268-3.7836	c10.22958,13.01254,22.28979,24.50232,35.81245,34.09143l-3.06705,26.78287c19.69435,12.09378,41.69997,20.74844,65.20462,25.24841	l16.41711-21.74603c6.73515,0.80228,13.56703,1.26712,20.52036,1.26712c9.86255,0,19.52176-0.88129,28.9342-2.48196	l16.73288,21.08585c23.20563-5.56082,44.8125-15.21408,63.97504-28.21481l-3.77957-27.01874	c13.01242-10.22269,24.50223-22.28687,34.08746-35.80164l26.78885,3.07111c12.09863-19.72507,20.76117-41.72171,25.26114-65.22342	L426.25003,276.5274z M321.87167,296.35797l-10.62631-1.21576c-3.78058,5.32205-8.30328,10.07263-13.4328,14.10391l1.49991,10.71817	c-7.56711,5.13742-16.11111,8.95062-25.27499,11.14832l-6.65329-8.38129c-3.70459,0.62671-7.49902,1.03122-11.38419,1.03122	c-2.74539,0-5.42957-0.21411-8.08421-0.5289l-6.51122,8.62109c-9.28423-1.77731-17.97829-5.19672-25.76247-9.97803l1.21576-10.62033	c-5.32497-3.77966-10.07262-8.30634-14.10785-13.43292l-10.71713,1.50003c-5.17502-7.63425-8.99995-16.23361-11.19078-25.48428	l8.40001-6.62662c-0.60794-3.65628-1.00458-7.38351-1.00458-11.21249c0-2.73752,0.20918-5.42662,0.52498-8.08128l-8.61717-6.51021	c1.77733-9.28119,5.20462-17.97726,9.97501-25.75064l10.61852,1.21486c3.78149-5.33295,8.31117-10.08354,13.4407-14.12271	l-1.49992-10.71016c7.57501-5.13358,16.11012-8.95074,25.27498-11.14844l6.65331,8.37737	c3.71248-0.62663,7.49994-1.0273,11.39207-1.0273c2.73752,0,5.43753,0.2023,8.0921,0.52496l6.49536-8.61807	c9.29218,1.78125,17.97736,5.20158,25.76254,9.97894l-1.21484,10.62033c5.27869,3.75006,9.99774,8.22731,14.01022,13.30864	l10.70129-1.53752c5.19086,7.61644,9.05328,16.19995,11.25797,25.43283l-8.37827,6.65927	c0.63156,3.7164,1.0282,7.50002,1.0282,11.38913c0,2.74539-0.20917,5.43359-0.52496,8.08524l8.61807,6.51019	C330.07037,279.87671,326.65002,288.57278,321.87167,296.35797z"></path></svg>